<svg xmlns="http://www.w3.org/2000/svg" width="2752" height="905" version="1.0"><path fill="#00168e" d="M0 95.3v95.4l17.1 18.1L34.3 227h48.2c43.1 0 48.4.2 48.9 1.6.3.9.6 26.4.6 56.8v55.2l12.5 12.3c6.9 6.8 12.5 12.9 12.5 13.7 0 1.2-3.9 1.4-22.8 1.4-30.4 0-40.5 1.2-59.2 7.2-13.2 4.2-22.7 8.8-34 16.2-17.7 11.8-30.8 28.2-37.2 46.6l-3.3 9.5-.3 212.9L0 873.3l3.7 4.1c2.1 2.3 8.2 9.4 13.6 15.8s10.5 11.9 11.3 12.2c3 1.2 567.7.7 574-.5 6.7-1.2 25.8-10.1 34.9-16.2 3.3-2.2 9.3-6.7 13.3-9.9s7.7-5.8 8.2-5.8c.4 0 2.3 2 4.2 4.4 8.8 11.5 23.2 27.7 25.1 28.1 1.2.3 69.7.4 152.2.3l150-.3.5-107.5c.3-60 .9-108.3 1.4-109.3 1.9-4 8.8-5.7 23.1-5.7 11.3 0 13.4.2 13.9 1.6.3.9.6 40.8.6 88.8v99.5l12.1 14.3c6.7 7.9 13.2 15.3 14.6 16.6l2.4 2.2 151.2-.2 151.2-.3.5-23.5c.3-12.9.8-23.5 1.2-23.5.5 0 3.6 2.7 7 6 10.6 10.1 32.8 23.9 51.8 32.2 15.4 6.6 17.2 7.3 24.5 8.3 10.3 1.4 515.3 1.3 523-.1 7-1.3 16.2-5.3 25.4-11.1 9.7-6 15.6-11 24.8-20.7l8.2-8.6 5.1 5.7c12.5 14.1 37.8 31.5 50.3 34.6 3.4.9 40.3 1.2 138.2 1.2 111.2 0 134.1-.2 136.9-1.4 5.3-2.2 12.2-10 28.6-32.4 8.5-11.7 15.9-21.2 16.6-21.2.6 0 3.7 3.3 6.8 7.2 3.1 4 12 15.6 19.8 25.7 9.5 12.2 15.5 19 17.8 20.3 3.3 1.7 9.1 1.8 138 1.7 99.9 0 135.5-.4 138.2-1.2 9-2.8 20.5-14 24.3-23.5 1-2.3 2.3-4.2 3.1-4.2 1.2 0 1.4-35.4 1.4-238 0-201.8-.2-238-1.4-238-.7 0-2.6-1.7-4.2-3.8-3.3-4.3-24-26.1-26.5-28-2.6-1.8-697.9-1.8-699.1 0-.5.7-.8 13.1-.7 27.6.1 14.5-.1 26.5-.4 26.8-.3.3-4.3-3.9-9-9.3-26.8-31.1-51-44-90.9-48.3-13.1-1.4-475.4-1.4-486.5 0-25.6 3.3-54.1 13.9-66.7 25.1-1.9 1.6-3.9 2.9-4.5 2.9-.8 0-1.1-48.5-1.1-181.8l-.1-181.7-14.7-15.3L1332.4 0H703l-.2 40.7-.3 40.8h-16l-.5-25.6-.5-25.6-14.6-15.1L656.3 0H0v95.3zm701.8 123.9c.9.9 1.2 15.9 1.2 61.2v60.1l13.7 13.7 13.8 13.8H686v-74.3c0-40.9.3-74.7.7-75 1.1-1.2 13.8-.8 15.1.5zM451 282.1v56.1l7.3 7.1c4 4 10.9 10.9 15.2 15.4l7.8 8.3H338v-70.8c0-39 .3-71.2.7-71.5.3-.4 25.8-.7 56.5-.7H451v56.1zm578.5 94.2c.3 1.8.4 37.6.3 79.7l-.3 76.5h-38l-.3-78.9c-.1-46.9.2-79.3.7-80 .6-.7 6.6-1 19-.8l18 .3.6 3.2zM1713 631.2c0 137.1-.3 175.8-1.3 177.7-2.8 5.5-4.8 6.1-23.7 6.6-9.6.2-19.6.2-22.2-.2l-4.8-.6V463.3l2.1-2.7c1.2-1.5 3.1-3.2 4.3-3.6 1.1-.5 11.9-.9 23.9-.9l21.7-.1v175.2z"/><path fill="#fa5dec" d="M16.337 11.2c-.3.7-.4 38.4-.3 83.8l.3 82.5 64.8.5c62.7.5 64.9.6 66.3 2.4 1.2 1.7 1.4 13.2 1.4 72.7 0 63 .2 70.9 1.6 72.3 1.4 1.4 9.2 1.6 71.3 1.6 52.9 0 70-.3 70.9-1.2.9-.9 1.2-18.5 1.2-72.9 0-65.4.1-71.8 1.7-73 1.3-1.1 13.2-1.5 64.2-1.9l62.6-.5v-167l-202.8-.3c-161.7-.2-202.9 0-203.2 1zm452.001 0c-.3.7-.4 71.9-.3 158.3l.3 157 86.2.3 86.2.2.3-73.2c.3-81.6 0-77.3 7.1-81.7 3.3-2 4.7-2.1 37.6-2.1h34.1v157l87.3-.2 87.2-.3v-316l-86.4-.3c-68.5-.2-86.6 0-87.3 1-.4.7-.8 18.2-.8 38.9 0 36.6-.1 37.7-2.1 40.3-4.3 5.5-4.9 5.6-41.9 5.6h-34V10h-86.5c-68.3 0-86.7.3-87 1.2zm472.1 3c-.9 3.5-.7 313.1.2 314.6.7 1 39.2 1.2 189.3 1l188.4-.3v-78l-132.5-.5c-148.7-.6-136.2.1-141.6-8-5-7.5-3.2-17 4.3-22.7l3.6-2.8 133.4-.3 133.3-.2v-90h-265.7l-4.2-3.1c-5.4-3.8-7.5-8.6-6.9-15.7.4-4.5 1.1-5.9 4.2-9.1 2.1-2.1 5.4-4.3 7.5-5 2.8-.8 39.7-1.1 134.5-1.1h130.6l-.2-40.3-.3-40.2-188.6-.3-188.7-.2-.6 2.2z"/><path fill="#2bfa7d" d="M1448.338 383c-45 3.8-79.1 25.9-87.7 56.9-1.7 6.2-1.8 15.5-1.8 183.8 0 198.6-.5 185.8 7.2 198.8 4.9 8.3 15.9 19.7 24.3 25 7.6 4.9 19.9 10.5 29.5 13.6l7.5 2.4h501l10-3.3c18.2-6 29.1-12.6 41-24.6 8.8-8.9 14.6-18.6 16.8-27.7 1.7-7.8 1.8-358.9 0-366.6-2.8-12.1-12.1-25.8-23.7-34.9-17.8-14.1-36.8-21-64.6-23.4-13.5-1.2-445.4-1.1-459.5 0zm268.6 36.2c5.7 3.4 10.3 8.4 12 13.5 2 5.6 2.1 378.9.1 384.6-2.1 5.7-6 9.7-12.7 12.8l-6 2.9h-74l-5.2-2.6c-6.7-3.4-11.1-7.7-13.6-13.4-2.1-4.5-2.1-5.9-2.3-188.5-.1-101.2.2-186.9.6-190.5 1.4-10.2 9.4-19.2 18.7-21.1 2.1-.4 20.5-.7 40.8-.6l37 .2 4.6 2.7zM99.737 386.1c-38.6 5.6-70.9 29.2-80.2 58.4l-2.2 7v198l2.2 4.8c4.6 9.7 18.3 19.6 31.3 22.6 3 .7 72.8 1.1 211.1 1.1 134.7 0 208.5.4 212 1 6.5 1.2 9.7 3.4 12.6 8.6 5.7 10 0 22.8-11.3 25.4-2.3.6-95.5 1-224.2 1-240.2 0-222.7-.4-228.3 5.7-5.6 6-5.4 2.7-5.7 73.2-.2 48.3 0 65.7.9 66.7 1 1.2 39.9 1.4 260.8 1.4 151.9-.1 263.9-.5 269.9-1 5.7-.5 11.8-1.4 13.5-1.9 1.8-.6 7.3-2.2 12.2-3.7 11.8-3.4 19.7-7.1 29.2-13.4 18.9-12.7 30.3-27.2 35.2-45 2.1-7.3 2.1-9.4 2.1-111.7V580.1l-2.4-5.4c-4.2-9.6-13.1-17.4-24.8-21.9-12.5-4.8-11.2-4.7-224.8-4.8-127.9 0-201.8-.4-203.9-1-3.9-1.1-8.6-5.1-10.7-9.2-4-7.6 0-18.9 8.1-22.7l4.5-2.1h760V385l-420.7.1c-231.5.1-423.3.5-426.4 1z"/><path fill="#2bfa7d" d="m1045.638 467.2-.3 82.3-4.5.7c-2.5.3-85.8.7-185.3.7l-180.7.1.2 155.7.3 155.8h272l.5-108.5c.5-102.5.6-108.7 2.3-111.3 1-1.6 3.2-3.7 5-4.8 3.1-1.8 4.9-1.9 42.4-1.7 37.6.3 39.3.4 41.9 2.3 1.5 1.1 3.5 3.6 4.5 5.5 1.8 3.3 1.9 8.2 1.9 110.7V862l135.8-.2 135.7-.3v-476l-135.7-.3-135.8-.2-.2 82.2zm994.2-78.3c-1.3 2.6-1.4 437.1 0 445.4 2.1 13.1 15.8 23.7 33.5 25.8 4.9.6 53.6.9 125.5.7l117.5-.3 4.2-2.3c6.8-3.6 10.7-7.6 22-22.6 5.9-7.7 14.1-18.5 18.2-23.9 7.7-10.3 12.6-15.7 14.1-15.7.5 0 2.6 2.2 4.7 5 7.6 9.9 38.8 47.6 42.1 50.8 1.9 1.8 5.7 4.5 8.6 6l5.1 2.7 116 .3c74.6.2 118.7-.1 123.7-.7 13.8-1.9 27.1-10.1 31.5-19.7l2.3-5.2.1-223c0-122.7-.2-223.6-.6-224.2-.4-.7-31.6-1-99.1-1h-98.4v160.4c0 118.4-.3 161.2-1.2 163.7-1.7 5.1-4.5 8.7-9.2 11.7-3.4 2.2-5.3 2.7-10.8 2.7-5.8 0-7.2-.4-11-3-2.3-1.7-5.4-5.1-6.8-7.5l-2.5-4.5-.5-161.5-.5-161.5-92.9-.3c-67.8-.1-93.2.1-94.2.9-1.2 1-1.4 27.6-1.4 161.3v160.2l-2.6 5.2c-3.7 7.5-9.7 11.2-18.2 11.2-9.9 0-16.9-4.9-20-13.9-.9-2.5-1.2-42.9-1.3-159.5 0-85.9-.4-158.1-.7-160.6l-.7-4.5-97.7-.3c-95.8-.2-97.7-.2-98.8 1.7z"/></svg>